<svg xmlns="http://www.w3.org/2000/svg" viewBox="0 0 32 40" role="img" aria-label="GroundGame">
  <path fill="#D97706" d="M26,27.0506V26.5a3.495,3.495,0,0,0,-3,-3.44946V21.43115a.50066.50066,0,0,0,-.2959-.45654C20.1676,19.84271,18.96405,17.5484,19.00165,14H20a2,2,0,0,0,0-4h-.00519A4.95371,4.95371,0,0,0,21,7,5,5,0,0,0,11,7a4.95349,4.95349,0,0,0,1.00525,3H12a2,2,0,0,0,0,4h.99878c.03711,3.54889,-1.1673,5.8432-3.70239,6.97461A.50031.50031,0,0,0,9,21.43115v1.61938A3.495,3.495,0,0,0,6,26.5v.5506A2.504,2.504,0,0,0,4,29.5a.49971.49971,0,0,0,.5.5h23a.49971.49971,0,0,0,.5-.5A2.50379,2.50379,0,0,0,26,27.0506Z"/>
</svg>
